<svg xmlns="http://www.w3.org/2000/svg" viewBox="0 0 144 144" width="144" height="144">
  <rect x="0" y="0" width="144" height="144" rx="28" fill="#16212e"/>
  <g transform="translate(12, 6)">
    <defs>
      <clipPath id="head-clip">
        <circle cx="60" cy="50" r="33" />
      </clipPath>
    </defs>

    <!-- hair volume, behind everything -->
    <g>
      <circle cx="60" cy="19" r="29" fill="#2e2019"/>
      <circle cx="29" cy="27" r="21" fill="#2e2019"/>
      <circle cx="91" cy="27" r="21" fill="#2e2019"/>
      <circle cx="16" cy="48" r="19" fill="#2e2019"/>
      <circle cx="104" cy="48" r="19" fill="#2e2019"/>
      <circle cx="14" cy="76" r="17" fill="#2e2019"/>
      <circle cx="106" cy="76" r="17" fill="#2e2019"/>
      <circle cx="19" cy="104" r="15" fill="#2e2019"/>
      <circle cx="101" cy="104" r="15" fill="#2e2019"/>
      <circle cx="27" cy="128" r="13" fill="#2e2019"/>
      <circle cx="93" cy="128" r="13" fill="#2e2019"/>
      <circle cx="24" cy="40" r="8" fill="#4a3327"/>
      <circle cx="98" cy="42" r="7" fill="#4a3327"/>
      <circle cx="20" cy="90" r="7" fill="#4a3327"/>
      <circle cx="102" cy="92" r="6.5" fill="#4a3327"/>
    </g>

    <!-- shoulders + top -->
    <path d="M28 118 Q60 100 92 118 L96 144 L24 144 Z" fill="#8fa8ae"/>

    <!-- neck -->
    <rect x="52" y="82" width="16" height="18" fill="#d9a679"/>

    <!-- head -->
    <circle cx="60" cy="50" r="33" fill="#e8b98f"/>

    <!-- front curls, clipped to the head -->
    <g clip-path="url(#head-clip)">
      <circle cx="34" cy="27" r="11" fill="#2e2019"/>
      <circle cx="48" cy="21" r="11.5" fill="#2e2019"/>
      <circle cx="60" cy="19" r="12" fill="#2e2019"/>
      <circle cx="72" cy="21" r="11.5" fill="#2e2019"/>
      <circle cx="86" cy="27" r="11" fill="#2e2019"/>
      <circle cx="26" cy="38" r="10" fill="#2e2019"/>
      <circle cx="94" cy="38" r="10" fill="#2e2019"/>
    </g>

    <!-- ears + gold hoops -->
    <circle cx="27" cy="54" r="5" fill="#e8b98f"/>
    <circle cx="93" cy="54" r="5" fill="#e8b98f"/>
    <circle cx="27" cy="60" r="2.6" fill="none" stroke="#ffc800" stroke-width="1.6"/>
    <circle cx="93" cy="60" r="2.6" fill="none" stroke="#ffc800" stroke-width="1.6"/>

    <!-- eyebrows: relaxed, happy -->
    <path d="M40 38 Q47.5 32 55 36.5" stroke="#2e2019" stroke-width="3.6" fill="none" stroke-linecap="round"/>
    <path d="M65 36.5 Q72.5 32 80 38" stroke="#2e2019" stroke-width="3.6" fill="none" stroke-linecap="round"/>

    <!-- eyes: happy closed-curve smile-eyes -->
    <path d="M40 43 Q47 35 54 43" stroke="#2b2019" stroke-width="3.4" fill="none" stroke-linecap="round"/>
    <path d="M66 43 Q73 35 80 43" stroke="#2b2019" stroke-width="3.4" fill="none" stroke-linecap="round"/>

    <!-- nose -->
    <path d="M59 50 L57.5 58 Q60 59.5 62.5 58" stroke="#d9a679" stroke-width="2" fill="none" stroke-linecap="round"/>

    <!-- mouth: big open grin with teeth -->
    <path d="M45 62 Q60 78 75 62 Q60 70 45 62 Z" fill="#2b2019"/>
    <path d="M48.5 63 Q60 71 71.5 63 Q60 67.5 48.5 63 Z" fill="#fff8f0"/>
  </g>
</svg>
